# Generated by geomdl
v 0.4434929598275773 -15.034371394737095 3.4454425059112848
v -22.540339172357516 -5.857799616652639 3.1258448249420776
v -38.533462442315525 -2.2931202654454066 2.9045652754401208
v -47.535876850046435 -4.340333341115402 2.7816038574054165
v -49.547582395550265 -11.999438843662622 2.7569605708379634
v -46.6140842057126 -20.646765285479102 2.7911174134675
v -41.00698454849215 -25.147569908164733 2.8401883141214754
v -32.72782416726941 -25.498370006570294 2.904143506509104
v -21.77660306204438 -21.699165580695777 2.9829829906303846
v -13.79436584330944 -17.69588685510784 3.0337740924224255
v -18.26623380142371 -20.123408993476204 2.984327767315613
v -35.343309878827526 -29.087429026894593 2.8334940060783826
v -65.02559407552083 -44.58794695536296 2.581272808710734
v -23.65541768367562 -21.883715814623663 3.0729557940767362
v -34.460769364210385 -8.713425257462102 2.97114850550067
v -40.57908173146928 -2.041542231590811 2.905546289297113
v -42.01035478545229 -1.868066737009801 2.8761491454660666
v -38.75458852615942 -8.192998773719067 2.88295707400753
v -33.49957030766383 -15.610488404157138 2.9108037916022678
v -29.230178421910683 -18.1171573835059 2.9428466303284755
v -25.948437400894313 -15.708933843453789 2.979074166430561
v -23.654347244614716 -8.385817784000793 3.019486399908525
v -24.961359694467625 -1.4142175717310708 3.029418121300103
v -34.26385707948675 -3.6493232593346416 2.9505815950866454
v -51.63184420823474 -15.232202655210529 2.7820482671595186
v -77.0653210807115 -36.16285575935868 2.5238181375187216
v -33.706774437646295 -22.14078601433096 2.884021248191688
v -38.76388710699233 -8.790418697190189 2.8980600448313476
v -40.29513250396784 -1.375857847826821 2.914892917311912
v -38.30051062857283 0.10289653375913554 2.934519865633381
v -32.78002148080729 -4.3541555524323154 2.9569408897957548
v -26.718056854872497 -9.883617853272291 2.9796450130990277
v -23.42888425324438 -11.084525192295997 2.999843711431699
v -22.914751620375053 -7.9532142955838045 3.017535093441517
v -25.175658956264527 -0.4896851631357071 3.0327191591284794
v -31.19837052447432 6.57897709045646 3.018755785876073
v -42.64207879220527 5.304426235425683 2.9308510017065417
v -59.53321556314174 -4.439959040290032 2.7682912152210792
v -81.87178083728365 -22.65417873669064 2.531076426419685
v -29.71057730208446 -15.805581993858985 2.8786388682561403
v -35.449692400703356 -6.088779935836903 2.9065794429341114
v -37.681614759811225 -0.2960671141534372 2.9326051594845173
v -36.40634437940808 1.5725564711914073 2.9567160179073593
v -31.623881259493917 -0.48290917980236747 2.978912018202636
v -26.269543847338596 -3.46615363282456 2.997641077957781
v -23.603102042493248 -4.0496733345350275 3.0111795574311495
v -23.626766825711655 -2.2312113629603494 3.019526287541971
v -26.340538196993812 1.9892322818994739 3.0226812682902473
v -32.50539833332952 6.283697131454749 3.001787086150336
v -43.400898939579264 6.73783949080476 2.9251359871753024
v -59.04742394354856 3.2893018178668885 2.792222850263066
v -79.44497334523733 -4.061915887358843 2.603047675413626
v -12.969119886018365 -3.5763571243519587 3.0413505689044324
v -25.204408493870886 -0.8664588445600171 2.9902045097783363
v -32.898508864636845 1.18529106672888 2.958754847572492
v -36.05142099831624 2.5788926095147278 2.9470015822869002
v -34.663144894909074 3.314345783797526 2.95494471392156
v -31.32740994502493 3.380338253625098 2.971191870127152
v -28.92463990744003 2.7643072892994773 2.9830914380937177
v -27.45678846652158 1.4662443699880814 2.9906348367025615
v -26.923855622269556 -0.5138505043090966 2.9938220659536827
v -29.113846608159015 -1.495202493985093 2.981330899274931
v -37.03319864962209 1.348323330969866 2.9341236052301745
v -50.7298058638892 8.061748777930234 2.8518969028017724
v -70.20366825096028 18.64507384689599 2.7346507919897247
v 2.7575555056428387 7.1691391681913785 3.208826124824991
v -15.278674462728667 4.151044647077477 3.0802330653980703
v -27.636168348451125 2.935730571553189 2.994100956369246
v -34.31492615152454 3.5231969416185143 2.9504297977385177
v -35.3149478719489 5.91344375727345 2.949219589505885
v -33.15756897089789 7.892149799239136 2.967918602879669
v -30.64281731269036 7.000236848845229 2.981482384244854
v -27.7725920521467 3.2360370047425384 2.9898939468794814
v -24.546893189266896 -3.4004497330689474 2.993153290783551
v -23.468726021118478 -8.253619370006893 2.987171498623767
v -28.74676296077505 -3.4953174386597525 2.965073269896317
v -40.44805036072019 10.99916265540534 2.9267490774687066
v -58.57258822095384 35.229820912188345 2.872198921340936
v 13.779813651348533 14.452627781516524 3.3372699619418276
v -7.616685878890516 8.232911526051062 3.1582432199922006
v -22.347846753865568 4.919726402943718 3.038846998339929
v -30.413668973576623 4.513072412194498 2.9790812969850102
v -31.81415253802368 7.012949553803396 2.9789461159274464
v -29.41805196347076 9.328216828620992 3.0059533142342354
v -26.411215664428614 8.026058150315073 3.024023718279677
v -22.795804483455456 3.104145167335678 3.0331328569014033
v -18.57181842055128 -5.437522120317207 3.0332807300994125
v -16.225644839475684 -11.711252672969861 3.0272952770911075
v -19.938013968138957 -5.8172021377531715 3.0199315296712963
v -29.77552702540255 12.402339183040189 3.0112652379831344
v -45.73818401126642 42.947371289410164 3.0012964020266217
v 20.097654551098717 18.27410871562348 3.426682080254943
v -2.2184427423564346 11.379141792360738 3.224234973560729
v -17.033544080880176 7.1372785609004685 3.092992973484541
v -24.3476494644725 5.548519021242681 3.0329560800263797
v -24.160758893133412 6.6128631733873675 3.0441242931862456
v -20.108858922743554 7.688539341770669 3.085296004190851
v -16.229834962654802 5.841771193709013 3.110715440198187
v -12.52642576044786 1.0705688577675003 3.120351566768327
v -8.998631316122722 -6.625067666053878 3.114204383901268
v -7.384603063230633 -11.868102402873998 3.101702234676951
v -10.60695167171383 -5.617330766310392 3.0986983845551115
v -18.712235857936292 12.271278360834781 3.105445384345055
v -31.700455621897987 41.79772497856146 3.121943234046781
v 21.711078204893397 18.633581970512246 3.4770624797643377
v 0.9160549468735791 13.589735446006502 3.2782083261036536
v -11.693260329494942 9.588387045423438 3.156538881803083
v -16.116867624212162 6.62953676876306 3.1120541468626253
v -12.354766937278075 4.7131846160253605 3.144754121282282
v -5.229989848716254 2.973117338688163 3.2059466727495156
v -0.09867520736891322 0.44737597902704174 3.241557550000385
v 3.035544116876107 -2.8646919239619955 3.251550076480252
v 4.172668124018799 -6.96308637027896 3.2359242521891183
v 3.0543993076166807 -8.724168559719299 3.2103923713812996
v -0.7535760714996513 -2.895703324331413 3.201373834547763
v -7.2581768583214075 10.605980188789108 3.2092895165544686
v -16.459403052848565 31.78088197964222 3.2341394174014146
v 21.684463845620193 14.403797591333667 3.495605938360468
v 4.93210835362125 12.792679391946889 3.3262147536662448
v -3.6559512729462016 10.150438142759636 3.2324640929830077
v -4.079715034082155 6.477073843771921 3.214353956310756
v 3.6608170702133873 1.7725864949837338 3.2718843436494898
v 13.810072995316634 -2.645432209539294 3.352614535309692
v 19.976296329512557 -5.313752360889486 3.398307347617585
v 22.15515178201541 -6.231381504609438 3.4089232804562197
v 20.346639352825196 -5.398319640699139 3.3844623338255966
v 15.9536721826888 -2.792277263921653 3.3450633461700865
v 11.335175296781896 1.6242242622651322 3.3245887203745212
v 6.528727604365507 7.851781992140947 3.323577902225347
v 1.5343291054396384 15.890395925705779 3.3420308917225614
v 28.61645857901448 2.421692580636835 3.502501000405022
v 18.65543149764746 3.173905576361012 3.385234696013804
v 14.573332298466157 2.86737847985526 3.329128717373908
v 16.370160981470583 1.5021112911195837 3.3341830644853347
v 24.045917546660732 -0.9218959898460266 3.400397737348083
v 33.05912884817699 -3.0707468064504755 3.4823936553806316
v 38.36633615183592 -3.4631041513463003 3.529775822739673
v 39.9641186670488 -2.0979632887042863 3.5425100583727622
v 37.85247639381562 1.024675781475577 3.520596362279899
v 33.73285688086902 4.488581561622128 3.482418792869948
v 30.466155136714224 5.912434906571422 3.458889182233864
v 28.097946714954052 5.2583001570199235 3.4504999720223326
v 26.628231615588508 2.526177312967637 3.4572511622353512
v 43.02109007881834 -17.501821169798784 3.498954538370712
v 42.61362612733243 -15.614151360735525 3.456283244921158
v 43.44263892769344 -12.616845194735767 3.4470325229069934
v 45.50812847990138 -8.50990267179953 3.471202372328217
v 48.81009478395624 -3.2933237919268077 3.528792793184831
v 52.28091489567454 2.06161448776877 3.592719113335692
v 54.73495761352299 6.476276426122073 3.6329028930575005
v 56.17141876792873 9.949930424603894 3.6493237312626396
v 56.59029835889177 12.482576483214228 3.6419816279511075
v 56.53659971490185 13.032385007318327 3.6210660532215693
v 56.92671741024743 9.847574057341376 3.6037100677824156
v 57.77525008972942 2.900236830884063 3.5901866102505404
v 59.08219775334779 -7.809626672053595 3.58049568062594
v 64.89835834503174 -45.366743659973146 3.484966552257538
v 76.80669224267612 -43.57149141934268 3.5393604003883063
v 82.95196861473559 -36.30223288101342 3.586175509582262
v 83.33418746121018 -23.5589680449854 3.6254118798394046
v 77.95334878209985 -5.341696911258605 3.6570695111597336
v 71.47543113780927 12.751651673118424 3.6835909091748746
v 69.08216071457375 24.504389371515607 3.707688558571068
v 70.7770520846552 29.912299635315065 3.729364299125851
v 76.5601052480536 28.97538246451679 3.7486181308392226
v 84.36490068478723 22.839133073166927 3.7610051272249514
v 90.71686211738147 13.429641714574993 3.7590513770201768
v 95.56063772869155 0.7775920137333703 3.74263781690997
v 98.89622751871745 -15.11701602935791 3.711764446894328
f 1 14 15
f 1 15 2
f 2 15 16
f 2 16 3
f 3 16 17
f 3 17 4
f 4 17 18
f 4 18 5
f 5 18 19
f 5 19 6
f 6 19 20
f 6 20 7
f 7 20 21
f 7 21 8
f 8 21 22
f 8 22 9
f 9 22 23
f 9 23 10
f 10 23 24
f 10 24 11
f 11 24 25
f 11 25 12
f 12 25 26
f 12 26 13
f 14 27 28
f 14 28 15
f 15 28 29
f 15 29 16
f 16 29 30
f 16 30 17
f 17 30 31
f 17 31 18
f 18 31 32
f 18 32 19
f 19 32 33
f 19 33 20
f 20 33 34
f 20 34 21
f 21 34 35
f 21 35 22
f 22 35 36
f 22 36 23
f 23 36 37
f 23 37 24
f 24 37 38
f 24 38 25
f 25 38 39
f 25 39 26
f 27 40 41
f 27 41 28
f 28 41 42
f 28 42 29
f 29 42 43
f 29 43 30
f 30 43 44
f 30 44 31
f 31 44 45
f 31 45 32
f 32 45 46
f 32 46 33
f 33 46 47
f 33 47 34
f 34 47 48
f 34 48 35
f 35 48 49
f 35 49 36
f 36 49 50
f 36 50 37
f 37 50 51
f 37 51 38
f 38 51 52
f 38 52 39
f 40 53 54
f 40 54 41
f 41 54 55
f 41 55 42
f 42 55 56
f 42 56 43
f 43 56 57
f 43 57 44
f 44 57 58
f 44 58 45
f 45 58 59
f 45 59 46
f 46 59 60
f 46 60 47
f 47 60 61
f 47 61 48
f 48 61 62
f 48 62 49
f 49 62 63
f 49 63 50
f 50 63 64
f 50 64 51
f 51 64 65
f 51 65 52
f 53 66 67
f 53 67 54
f 54 67 68
f 54 68 55
f 55 68 69
f 55 69 56
f 56 69 70
f 56 70 57
f 57 70 71
f 57 71 58
f 58 71 72
f 58 72 59
f 59 72 73
f 59 73 60
f 60 73 74
f 60 74 61
f 61 74 75
f 61 75 62
f 62 75 76
f 62 76 63
f 63 76 77
f 63 77 64
f 64 77 78
f 64 78 65
f 66 79 80
f 66 80 67
f 67 80 81
f 67 81 68
f 68 81 82
f 68 82 69
f 69 82 83
f 69 83 70
f 70 83 84
f 70 84 71
f 71 84 85
f 71 85 72
f 72 85 86
f 72 86 73
f 73 86 87
f 73 87 74
f 74 87 88
f 74 88 75
f 75 88 89
f 75 89 76
f 76 89 90
f 76 90 77
f 77 90 91
f 77 91 78
f 79 92 93
f 79 93 80
f 80 93 94
f 80 94 81
f 81 94 95
f 81 95 82
f 82 95 96
f 82 96 83
f 83 96 97
f 83 97 84
f 84 97 98
f 84 98 85
f 85 98 99
f 85 99 86
f 86 99 100
f 86 100 87
f 87 100 101
f 87 101 88
f 88 101 102
f 88 102 89
f 89 102 103
f 89 103 90
f 90 103 104
f 90 104 91
f 92 105 106
f 92 106 93
f 93 106 107
f 93 107 94
f 94 107 108
f 94 108 95
f 95 108 109
f 95 109 96
f 96 109 110
f 96 110 97
f 97 110 111
f 97 111 98
f 98 111 112
f 98 112 99
f 99 112 113
f 99 113 100
f 100 113 114
f 100 114 101
f 101 114 115
f 101 115 102
f 102 115 116
f 102 116 103
f 103 116 117
f 103 117 104
f 105 118 119
f 105 119 106
f 106 119 120
f 106 120 107
f 107 120 121
f 107 121 108
f 108 121 122
f 108 122 109
f 109 122 123
f 109 123 110
f 110 123 124
f 110 124 111
f 111 124 125
f 111 125 112
f 112 125 126
f 112 126 113
f 113 126 127
f 113 127 114
f 114 127 128
f 114 128 115
f 115 128 129
f 115 129 116
f 116 129 130
f 116 130 117
f 118 131 132
f 118 132 119
f 119 132 133
f 119 133 120
f 120 133 134
f 120 134 121
f 121 134 135
f 121 135 122
f 122 135 136
f 122 136 123
f 123 136 137
f 123 137 124
f 124 137 138
f 124 138 125
f 125 138 139
f 125 139 126
f 126 139 140
f 126 140 127
f 127 140 141
f 127 141 128
f 128 141 142
f 128 142 129
f 129 142 143
f 129 143 130
f 131 144 145
f 131 145 132
f 132 145 146
f 132 146 133
f 133 146 147
f 133 147 134
f 134 147 148
f 134 148 135
f 135 148 149
f 135 149 136
f 136 149 150
f 136 150 137
f 137 150 151
f 137 151 138
f 138 151 152
f 138 152 139
f 139 152 153
f 139 153 140
f 140 153 154
f 140 154 141
f 141 154 155
f 141 155 142
f 142 155 156
f 142 156 143
f 144 157 158
f 144 158 145
f 145 158 159
f 145 159 146
f 146 159 160
f 146 160 147
f 147 160 161
f 147 161 148
f 148 161 162
f 148 162 149
f 149 162 163
f 149 163 150
f 150 163 164
f 150 164 151
f 151 164 165
f 151 165 152
f 152 165 166
f 152 166 153
f 153 166 167
f 153 167 154
f 154 167 168
f 154 168 155
f 155 168 169
f 155 169 156
